<svg width="720" height="591" viewBox="0 0 720 591" fill="none" xmlns="http://www.w3.org/2000/svg">
<rect width="720" height="591" fill="#546142"/>
<path fill-rule="evenodd" clip-rule="evenodd" d="M201.547 122.675C196.415 127.615 194.647 138.122 197.074 149.277C198.741 156.941 233.936 220.036 255.638 254.269L260.545 262.011L253.555 272.619C208.055 341.664 194.759 404.22 218.185 439.033C224.95 449.086 234.077 455.879 248.958 461.931C265.581 468.693 291.343 468.689 307.949 461.924C362.45 439.721 368.656 370.214 323.835 284.03L312.799 262.813L326.703 245.149C355.097 209.078 386.046 178.744 406.906 166.542C431.091 152.396 442.805 159.174 442.771 187.293C442.75 206.437 440.372 217.383 421.661 284.45C412.464 317.419 403.504 352.1 401.751 361.519C392.801 409.578 402.722 440.776 430.937 453.314C437.839 456.38 442.143 456.914 454.399 456.23C474.349 455.114 487.677 448.839 508.391 430.806C521.688 419.232 526.432 413.382 535.698 397.15C544.758 381.277 546.928 375.692 546.995 368.082C547.067 359.849 546.397 358.328 541.665 355.986C531.809 351.113 527.153 354.093 510.207 376.121C483.4 410.971 469.061 422.512 453.929 421.422C447.537 420.962 445.405 419.8 443.047 415.497C438.981 408.077 442.801 381.767 452.433 350.858C469.684 295.497 486.876 234.492 488.979 221.167C500.501 148.203 461.855 106.153 402.063 126.593C374.615 135.977 337.542 166.909 300.504 211.331L290.073 223.84L278.468 203.026C272.087 191.58 261.662 172.326 255.303 160.241C240.572 132.25 227.261 119 213.874 119C208.038 119 204.168 120.154 201.547 122.675ZM274.682 324.796C257.53 356.48 252.689 370.486 251.623 391.491C250.772 408.248 251.132 410.556 255.777 418.098C261.47 427.335 267.666 430.874 278.205 430.915C288.558 430.955 298.471 424.795 304.113 414.817C308.476 407.101 308.984 403.704 308.824 383.233C308.63 358.192 304.311 341.734 291.489 317.175L285.263 305.248L274.682 324.796Z" fill="#FFF9F4"/>
</svg>
