<svg width="670" height="235" viewBox="0 0 670 235" fill="none" xmlns="http://www.w3.org/2000/svg">
<g opacity="0.9">
<path fill-rule="evenodd" clip-rule="evenodd" d="M3.19321 7.80923C0.23879 11.067 -0.778764 17.9965 0.618401 25.3532C1.57774 30.4081 21.8378 72.02 34.3311 94.597L37.1557 99.7027L33.1316 106.699C6.9396 152.235 -0.714488 193.491 12.7708 216.451C16.6652 223.081 21.9191 227.561 30.4852 231.553C40.0543 236.012 54.8847 236.01 64.4441 231.548C95.8172 216.905 99.3902 171.064 73.5887 114.225L67.236 100.232L75.2393 88.5824C91.5845 64.7928 109.401 44.7874 121.409 36.7397C135.331 27.4105 142.074 31.8808 142.055 50.4256C142.042 63.0514 140.673 70.2701 129.902 114.502C124.608 136.245 119.45 159.118 118.441 165.329C113.289 197.025 119 217.601 135.242 225.87C139.215 227.892 141.693 228.244 148.748 227.793C160.232 227.057 167.905 222.918 179.829 211.026C187.483 203.392 190.214 199.534 195.548 188.829C200.763 178.361 202.013 174.677 202.051 169.658C202.093 164.228 201.707 163.225 198.983 161.681C193.309 158.466 190.629 160.432 180.874 174.96C165.443 197.944 157.188 205.556 148.478 204.837C144.798 204.533 143.571 203.767 142.214 200.929C139.873 196.035 142.072 178.684 147.617 158.298C157.547 121.787 167.444 81.5537 168.654 72.7654C175.287 24.6452 153.04 -3.08719 118.621 10.393C102.82 16.5818 81.4793 36.9817 60.158 66.2789L54.1533 74.5287L47.4731 60.8016C43.7995 53.2526 37.7985 40.5542 34.1382 32.584C25.6582 14.1239 17.9956 5.38525 10.2894 5.38525C6.9299 5.38525 4.70195 6.14645 3.19321 7.80923ZM45.2937 141.11C35.4202 162.006 32.6331 171.243 32.0194 185.096C31.5294 196.148 31.7368 197.67 34.4111 202.644C37.6881 208.736 41.255 211.07 47.3215 211.097C53.2813 211.124 58.9876 207.061 62.2355 200.48C64.7473 195.391 65.0396 193.151 64.9474 179.651C64.8358 163.135 62.3495 152.281 54.9683 136.084L51.3845 128.218L45.2937 141.11Z" fill="currentColor"/>
<path fill-rule="evenodd" clip-rule="evenodd" d="M433.091 0.4115C419.549 1.98158 408.016 5.15322 398.479 9.92954C376.571 20.9028 361.115 40.6972 361.115 57.7793C361.115 66.9984 364.395 72.1248 370.751 72.8414C375.12 73.3338 375.727 72.5779 377.217 64.7975C381.337 43.2607 399.541 27.2146 425.49 22.2463C433.356 20.74 449.417 20.8186 456.534 22.3974C467.665 24.8673 477.907 31.2578 483.372 39.1428C491.501 50.8744 492.2 71.5458 485.106 90.4324C474.036 119.905 447.76 138.805 412.4 142.729L407.442 143.279L407.953 141.009C411.918 123.389 415.85 109.678 424.955 81.7104C432.703 57.9138 435.844 46.6904 435.844 42.8021C435.844 35.2341 423.136 32.0751 418.397 38.4648C414.818 43.2883 389.862 120.797 384.428 143.962C383.767 146.777 381.544 147.208 371.011 146.564C362.805 146.062 362.209 146.127 360.812 147.678C359.67 148.946 359.43 150.07 359.766 152.576C360.457 157.726 365.173 161.795 373.308 164.259C375.038 164.782 376.886 165.346 377.415 165.511C378.153 165.741 378.112 166.556 377.238 169.033C374.901 175.655 368.963 197.259 367.427 204.725C365.346 214.838 365.344 220.105 367.421 222.745C371.889 228.425 383.197 226.977 386.59 220.289C387.177 219.134 388.792 213.409 390.178 207.569C392.737 196.796 400.489 167.277 400.886 166.795C401.005 166.651 404.937 166.038 409.623 165.433C464.944 158.287 499.295 130.798 510.314 84.8569C512.454 75.9351 512.244 56.7638 509.915 48.2793C508.057 41.5121 504.079 32.5242 500.799 27.6818C495.388 19.6922 484.664 10.993 474.905 6.67688C463.296 1.54265 445.864 -1.06891 433.091 0.4115Z" fill="currentColor"/>
<path fill-rule="evenodd" clip-rule="evenodd" d="M634.167 51.8231C625.822 53.7864 621.435 63.6781 625.433 71.5152C629.983 80.433 642.516 81.528 648.609 73.5391C656.27 63.4948 646.567 48.9047 634.167 51.8231Z" fill="currentColor"/>
<path fill-rule="evenodd" clip-rule="evenodd" d="M548.144 83.2805C542.927 84.8513 540.806 87.0916 534.576 97.6094C512.436 134.996 483.367 169.574 458.037 188.652C451.584 193.513 441.262 198.903 433.877 201.268C427.238 203.394 425.629 204.789 425.079 208.899C424.219 215.309 428.459 219.372 436.001 219.363C441.433 219.358 445.115 218.296 452.573 214.583C464.774 208.509 478.119 198.268 492.247 184.136C504.107 172.274 511.051 163.976 526.514 143.189C533.383 133.954 539.113 126.521 539.246 126.67C539.802 127.292 546.04 145.489 547.564 150.932C549.915 159.334 550.502 173.771 548.827 182.004C545.59 197.908 535.65 209.9 525.683 209.924C523.217 209.93 518.484 207.39 515.931 204.691C514.769 203.462 512.76 200.093 511.468 197.206C508.86 191.379 507.458 190.263 502.746 190.263C500.187 190.263 498.94 190.81 496.598 192.957C493.791 195.532 493.661 195.874 493.684 200.627C493.714 206.733 496.397 212.16 501.955 217.359C515.352 229.89 533.072 230.28 557.376 218.577C566.968 213.957 580.954 204.797 586.34 199.606C588.529 197.496 590.43 195.769 590.564 195.769C590.697 195.769 590.807 197.148 590.807 198.833C590.807 207.051 596.971 218.623 603.733 223.103C611.673 228.362 619.041 228.367 629.524 223.12C644.38 215.684 663.32 191.028 668.295 172.646C669.955 166.516 669.438 162.816 666.455 159.477C664.048 156.785 659.606 156.078 657.272 158.015C656.544 158.619 653.464 164.074 650.427 170.137C641.456 188.043 632.552 199.743 624.286 204.484C619.253 207.37 617.395 207.365 614.946 204.455C609.221 197.65 612.56 177.05 625.408 139.92C632.524 119.354 635.644 108.275 635.644 103.571C635.644 99.454 631.649 95.1458 627.66 94.9601C621.149 94.6581 618.193 96.3839 615.499 102.062C613.483 106.309 607.868 122.522 601.852 141.47C595.228 162.329 591.067 170.167 581.019 180.711C575.702 186.291 568.896 192.213 568.386 191.703C568.203 191.519 568.591 189.44 569.249 187.08C570.956 180.967 571.607 163.166 570.381 156.175C569.837 153.075 567.859 145.727 565.984 139.844C564.11 133.961 562.155 126.726 561.639 123.766C560.456 116.972 561.125 106.707 563.24 99.2228C565.172 92.3863 565.238 90.2515 563.617 87.116C561.564 83.146 554.448 81.3824 548.144 83.2805Z" fill="currentColor"/>
<path fill-rule="evenodd" clip-rule="evenodd" d="M261.832 40.4555C260.657 41.0935 258.777 43.1827 257.654 45.0981C256.532 47.0135 252.758 52.5836 249.268 57.4763C238.727 72.2536 237.519 76.3558 242.483 80.5327C245.005 82.655 248.577 83.0759 252.243 81.682C257.312 79.7548 271.812 63.6316 276.065 55.1936C279.169 49.0344 277.446 43.9041 271.27 40.9141C267.233 38.9594 264.806 38.8414 261.832 40.4555ZM320.998 87.6406C316.982 89.4435 314.276 92.3312 309.969 99.4091C302.926 110.982 288.932 127.038 278.724 135.254L272.621 140.168L272.003 132.769C271.229 123.5 269.65 116.605 267.193 111.756C259.516 96.6065 241.852 90.0343 225.774 96.3453C203.073 105.256 181.469 144.308 179.666 179.69C179.284 187.184 179.471 190.487 180.556 195.423C185.402 217.471 203.833 230.946 222.574 226.142C233.391 223.369 245.304 215.049 253.111 204.815C260.193 195.531 267.722 179.212 270.634 166.831C271.551 162.933 271.868 162.544 275.657 160.641C277.881 159.525 281.825 157.104 284.42 155.263C290.009 151.298 305.126 135.81 309.592 129.473C311.323 127.017 312.966 125 313.244 124.991C313.52 124.982 313.989 125.948 314.283 127.137C314.578 128.327 317.41 134.787 320.576 141.493C329.972 161.392 332.866 173.179 331.214 184.828C329.711 195.42 324.961 202.862 317.709 205.982C311.007 208.865 305.226 207.436 301.07 201.869C298.704 198.701 298.45 190 300.463 181.095C302.365 172.678 301.847 169.755 298.187 168.238C292.903 166.05 286.469 170.544 282.081 179.49C271.757 200.539 283.234 222.562 306.618 226.572C325.018 229.728 343.629 217.025 350.597 196.556C351.771 193.106 352.053 190.079 351.988 181.61C351.888 168.439 350.082 161.127 342.273 142.28C335.222 125.265 334.824 123.137 335.458 105.927L335.973 91.9929L333.748 89.5041C331.937 87.477 330.802 86.9578 327.638 86.7093C325.19 86.5173 322.732 86.8619 320.998 87.6406ZM238.017 115.669C233.695 119.07 231.6 127.725 233.732 133.379C235.741 138.708 244.022 143.853 250.59 143.853C253.06 143.853 253.321 143.62 253.815 140.987C254.478 137.456 253.708 126.463 252.504 122.258C252.014 120.548 250.446 117.981 249.02 116.555C245.81 113.345 241.422 112.992 238.017 115.669ZM212.051 136.31C203.161 151.479 198.242 186.553 203.326 198.523C208.51 210.728 222.91 210.023 235.124 196.967C241.736 189.898 247.636 177.346 249.821 165.698C250.332 162.978 250.229 162.773 248.12 162.323C236.968 159.937 227.609 154.964 223.436 149.204C222.091 147.347 219.601 142.905 217.904 139.334C216.207 135.763 214.654 132.84 214.452 132.84C214.25 132.84 213.17 134.402 212.051 136.31Z" fill="currentColor"/>
</g>
</svg>
